# xmcd
#
# Track frame offsets:
#	150
#	17847
#	33112
#	52065
#	68832
#	86407
#	100592
#	120762
#	137190
#	153902
#	170137
#	183950
#	200620
#	216280
#	234575
#
# Disc length: 3378 seconds
#
# Revision: 0
# Processed by: cddbd v1.5.2PL0 Copyright (c) Steve Scherf et al.
# Submitted via: audiograbber 1.83.01
#
DISCID=c60d300f
DTITLE=Sound Choice - SC8496
DYEAR=1900
DGENRE=
TTITLE0=Restless Heart - For Lack Of Better Words
TTITLE1=Wariner, Steve - Every Little Whisper
TTITLE2=Jackson, Alan - Right On The Money
TTITLE3=Davis, Linda - I'm Yours
TTITLE4=Messina, Jo Dee - Stand Beside Me
TTITLE5=Kershaw, Sammy - One Day Left To Live
TTITLE6=Loveless, Patty - Like Water Into Wine
TTITLE7=Lawrence, Tracy - I'll Never Pass This Way Again
TTITLE8=Simpson, Jenny - Ticket Out Of Kansas
TTITLE9=Daniels, Clint - When I Grow Up
TTITLE10=McEntire, Reba - Wrong Night
TTITLE11=Wilkinsons - Fly
TTITLE12=Cyrus, Billy Ray - Busy Man
TTITLE13=Moorer, Allison - Alabama Song
TTITLE14=Raye, Collin - The Eleventh Commandment
EXTD=
EXTT0=
EXTT1=
EXTT2=
EXTT3=
EXTT4=
EXTT5=
EXTT6=
EXTT7=
EXTT8=
EXTT9=
EXTT10=
EXTT11=
EXTT12=
EXTT13=
EXTT14=
PLAYORDER=
